<svg width="22" height="20" viewBox="0 0 22 20" fill="none" xmlns="http://www.w3.org/2000/svg">
<path d="M17.4734 19.2022C19.2748 19.2022 20.6515 17.6544 20.6515 15.8521V5.80208H1.77416V15.8521C1.77416 17.6544 3.15086 19.2022 4.9523 19.2022H17.4734ZM7.84189 8.48209H14.5838C14.7626 8.48209 14.9341 8.55268 15.0605 8.67833C15.187 8.80398 15.258 8.9744 15.258 9.1521C15.258 9.32979 15.187 9.50021 15.0605 9.62586C14.9341 9.75151 14.7626 9.8221 14.5838 9.8221H7.84189C7.66308 9.8221 7.4916 9.75151 7.36516 9.62586C7.23873 9.50021 7.1677 9.32979 7.1677 9.1521C7.1677 8.9744 7.23873 8.80398 7.36516 8.67833C7.4916 8.55268 7.66308 8.48209 7.84189 8.48209ZM1.50449 0.442047C1.2184 0.442047 0.944024 0.55499 0.741727 0.75603C0.53943 0.957071 0.425781 1.22974 0.425781 1.51405L0.425781 3.12206C0.425781 3.40638 0.53943 3.67905 0.741727 3.88009C0.944024 4.08113 1.2184 4.19407 1.50449 4.19407H20.9212C21.2073 4.19407 21.4817 4.08113 21.684 3.88009C21.8863 3.67905 21.9999 3.40638 21.9999 3.12206V1.51405C21.9999 1.22974 21.8863 0.957071 21.684 0.75603C21.4817 0.55499 21.2073 0.442047 20.9212 0.442047H1.50449Z" fill="#00E5FA"/>
</svg>
