<svg width="20" height="23" viewBox="0 0 20 23" fill="none" xmlns="http://www.w3.org/2000/svg">
<path d="M7.64131 19.7527C8.21144 19.6252 11.6949 19.5812 12.2681 19.6942C12.7583 19.8004 13.2901 20.0561 13.2974 20.629C13.276 21.1748 12.9605 21.6624 12.5201 21.9751C11.9495 22.4293 11.2769 22.7209 10.5713 22.8318C10.181 22.8871 9.79684 22.8932 9.41885 22.8464C8.70949 22.7533 8.02964 22.4788 7.44883 22.0381C6.99941 21.7378 6.67159 21.2583 6.63621 20.7132C6.6289 20.1403 7.15403 19.8712 7.64131 19.7527ZM9.7719 0.122227C12.1507 0.0921556 14.5949 1.18438 16.0621 3.0293C17.0139 4.21718 17.4588 5.41032 17.4826 7.27349L17.4888 7.75819C17.5071 9.18708 17.8974 10.0245 18.7452 10.9845C19.3874 11.6915 19.6014 12.6068 19.6141 13.6025C19.6268 14.5971 19.3104 15.5455 18.6621 16.3204C17.8124 17.2502 16.6049 17.8523 15.3663 17.9699C13.5714 18.145 11.775 18.2961 9.95315 18.3191C8.13015 18.3422 6.33232 18.2881 4.53285 18.1069C3.29046 18.0206 2.06801 17.4493 1.19592 16.5412C0.528081 15.7829 0.186428 14.8429 0.173726 13.8483C0.161008 12.8525 0.352725 11.9321 0.975505 11.2091C1.8246 10.2277 2.16844 9.38098 2.15019 7.95209L2.144 7.46739C2.11956 5.55381 2.5832 4.29646 3.5552 3.05905C5.00078 1.25409 7.34086 0.152959 9.66961 0.12352L9.7719 0.122227Z" fill="#CDC53E"/>
</svg>
