<svg width="26" height="25" viewBox="0 0 26 25" fill="none" xmlns="http://www.w3.org/2000/svg">
<path d="M16.0883 16.6325L15.9412 17.3679C16.2728 17.4342 16.6078 17.2704 16.7591 16.9679L16.0883 16.6325ZM8.80905 9.35327L8.47364 8.68245C8.17113 8.8337 8.00728 9.16871 8.07361 9.50036L8.80905 9.35327ZM9.17719 9.1692L9.5126 9.84002V9.84002L9.17719 9.1692ZM10.1781 6.53659L10.8745 6.25805L10.1781 6.53659ZM9.332 4.42132L8.63564 4.69986V4.69986L9.332 4.42132ZM21.0202 16.1095L20.7417 16.8059L21.0202 16.1095ZM18.9049 15.2634L19.1835 14.5671H19.1835L18.9049 15.2634ZM16.2723 16.2643L16.9431 16.5997L16.9431 16.5997L16.2723 16.2643ZM17.418 11.433C17.418 11.8473 17.7538 12.183 18.168 12.183C18.5822 12.183 18.918 11.8473 18.918 11.433H17.418ZM17.8514 9.84125L18.5443 9.55424L17.8514 9.84125ZM15.6003 7.59012L15.8873 6.89721L15.6003 7.59012ZM14.0085 6.5235C13.5943 6.5235 13.2585 6.85928 13.2585 7.2735C13.2585 7.68771 13.5943 8.0235 14.0085 8.0235V6.5235ZM21.5776 11.433C21.5776 11.8473 21.9134 12.183 22.3276 12.183C22.7418 12.183 23.0776 11.8473 23.0776 11.433H21.5776ZM21.6943 8.24946L22.3872 7.96245V7.96245L21.6943 8.24946ZM17.1921 3.74721L17.4791 3.0543V3.0543L17.1921 3.74721ZM14.0085 2.36395C13.5943 2.36395 13.2585 2.69974 13.2585 3.11395C13.2585 3.52817 13.5943 3.86395 14.0085 3.86395V2.36395ZM21.5776 18.0405V19.7521H23.0776V18.0405H21.5776ZM5.68939 3.86395H7.40098V2.36395H5.68939V3.86395ZM16.0883 16.6325C16.2353 15.897 16.2355 15.8971 16.2358 15.8971C16.2358 15.8971 16.236 15.8972 16.2361 15.8972C16.2363 15.8972 16.2365 15.8973 16.2366 15.8973C16.2369 15.8974 16.237 15.8974 16.237 15.8974C16.2369 15.8974 16.2363 15.8972 16.235 15.897C16.2325 15.8964 16.2275 15.8954 16.2202 15.8938C16.2057 15.8906 16.182 15.8852 16.1497 15.8773C16.0853 15.8616 15.9871 15.8362 15.8612 15.7992C15.609 15.725 15.2475 15.6047 14.8239 15.4232C13.9731 15.0586 12.8926 14.4559 11.9391 13.5024L10.8784 14.5631C12.0047 15.6894 13.2639 16.3866 14.233 16.8019C14.7192 17.0103 15.1377 17.1499 15.4379 17.2383C15.5882 17.2825 15.7094 17.3139 15.7952 17.3348C15.8381 17.3453 15.8723 17.3531 15.8969 17.3585C15.9091 17.3612 15.919 17.3633 15.9265 17.3649C15.9302 17.3657 15.9333 17.3663 15.9357 17.3668C15.9369 17.3671 15.938 17.3673 15.9389 17.3675C15.9394 17.3675 15.9398 17.3676 15.9402 17.3677C15.9403 17.3677 15.9406 17.3678 15.9407 17.3678C15.9409 17.3679 15.9412 17.3679 16.0883 16.6325ZM11.9391 13.5024C10.9856 12.549 10.383 11.4684 10.0184 10.6177C9.83678 10.194 9.71648 9.83253 9.64231 9.58035C9.60527 9.45442 9.57988 9.35624 9.5642 9.29177C9.55637 9.25956 9.55097 9.23581 9.54776 9.22128C9.54616 9.21402 9.5451 9.20907 9.54457 9.20652C9.5443 9.20524 9.54416 9.20457 9.54415 9.20451C9.54414 9.20448 9.54417 9.2046 9.54422 9.20488C9.54425 9.20502 9.54429 9.2052 9.54433 9.20541C9.54435 9.20552 9.54439 9.20571 9.5444 9.20577C9.54444 9.20597 9.54448 9.20618 8.80905 9.35327C8.07361 9.50036 8.07366 9.50059 8.07371 9.50083C8.07373 9.50092 8.07378 9.50117 8.07382 9.50136C8.07389 9.50174 8.07397 9.50215 8.07407 9.5026C8.07425 9.50352 8.07447 9.50458 8.07472 9.50581C8.07522 9.50827 8.07586 9.51135 8.07664 9.51506C8.0782 9.52248 8.08032 9.53238 8.08303 9.54466C8.08846 9.56923 8.09626 9.60337 8.1067 9.6463C8.12758 9.73213 8.15906 9.8533 8.20326 10.0036C8.29157 10.3038 8.43124 10.7223 8.63963 11.2085C9.05494 12.1776 9.75213 13.4368 10.8784 14.5631L11.9391 13.5024ZM9.14446 10.0241L9.5126 9.84002L8.84178 8.49838L8.47364 8.68245L9.14446 10.0241ZM10.8745 6.25805L10.0284 4.14277L8.63564 4.69986L9.48175 6.81513L10.8745 6.25805ZM21.2987 15.4132L19.1835 14.5671L18.6264 15.9598L20.7417 16.8059L21.2987 15.4132ZM15.6015 15.9289L15.4174 16.2971L16.7591 16.9679L16.9431 16.5997L15.6015 15.9289ZM19.1835 14.5671C17.817 14.0205 16.2597 14.6126 15.6015 15.9289L16.9431 16.5997C17.2524 15.9812 17.9843 15.7029 18.6264 15.9598L19.1835 14.5671ZM9.5126 9.84002C10.829 9.18184 11.421 7.62451 10.8745 6.25805L9.48175 6.81513C9.7386 7.45727 9.46036 8.18909 8.84178 8.49838L9.5126 9.84002ZM7.40098 3.86395C7.94472 3.86395 8.43369 4.195 8.63564 4.69986L10.0284 4.14277C9.59861 3.06843 8.55808 2.36395 7.40098 2.36395V3.86395ZM23.0776 18.0405C23.0776 16.8834 22.3731 15.8429 21.2987 15.4132L20.7417 16.8059C21.2465 17.0078 21.5776 17.4968 21.5776 18.0405H23.0776ZM20.2478 21.0819C11.473 21.0819 4.35962 13.9685 4.35962 5.19372H2.85962C2.85962 14.7969 10.6446 22.5819 20.2478 22.5819V21.0819ZM20.2478 22.5819C21.8106 22.5819 23.0776 21.315 23.0776 19.7521H21.5776C21.5776 20.4865 20.9822 21.0819 20.2478 21.0819V22.5819ZM4.35962 5.19372C4.35962 4.45931 4.95498 3.86395 5.68939 3.86395V2.36395C4.12655 2.36395 2.85962 3.63088 2.85962 5.19372H4.35962ZM18.918 11.433C18.918 10.7883 18.791 10.1499 18.5443 9.55424L17.1585 10.1283C17.3298 10.5419 17.418 10.9853 17.418 11.433H18.918ZM18.5443 9.55424C18.2976 8.95859 17.9359 8.41736 17.4801 7.96147L16.4194 9.02213C16.736 9.33873 16.9871 9.7146 17.1585 10.1283L18.5443 9.55424ZM17.4801 7.96147C17.0242 7.50558 16.4829 7.14394 15.8873 6.89721L15.3133 8.28303C15.7269 8.45438 16.1028 8.70552 16.4194 9.02213L17.4801 7.96147ZM15.8873 6.89721C15.2916 6.65049 14.6532 6.5235 14.0085 6.5235V8.0235C14.4562 8.0235 14.8996 8.11169 15.3133 8.28303L15.8873 6.89721ZM23.0776 11.433C23.0776 10.2421 22.843 9.06276 22.3872 7.96245L21.0014 8.53648C21.3818 9.4548 21.5776 10.4391 21.5776 11.433H23.0776ZM22.3872 7.96245C21.9315 6.86214 21.2634 5.86237 20.4213 5.02023L19.3606 6.08089C20.0635 6.78374 20.621 7.61815 21.0014 8.53648L22.3872 7.96245ZM20.4213 5.02023C19.5792 4.17808 18.5794 3.51006 17.4791 3.0543L16.905 4.44012C17.8234 4.8205 18.6578 5.37803 19.3606 6.08089L20.4213 5.02023ZM17.4791 3.0543C16.3788 2.59853 15.1994 2.36395 14.0085 2.36395V3.86395C15.0025 3.86395 15.9867 4.05973 16.905 4.44012L17.4791 3.0543Z" fill="#00E5FA"/>
</svg>
