<svg width="25" height="26" viewBox="0 0 25 26" fill="none" xmlns="http://www.w3.org/2000/svg">
<path d="M23.5417 26C20.6481 26 17.7894 25.3442 14.9653 24.0327C12.1412 22.7211 9.57176 20.8611 7.25694 18.4528C4.94213 16.0444 3.15417 13.3722 1.89306 10.4361C0.631944 7.50004 0.000925926 4.52689 0 1.51667C0 1.08333 0.138889 0.722222 0.416667 0.433333C0.694444 0.144444 1.04167 0 1.45833 0H7.08333C7.40741 0 7.69676 0.114592 7.95139 0.343778C8.20602 0.572963 8.35648 0.843555 8.40278 1.15556L9.30556 6.21111C9.35185 6.5963 9.34028 6.9213 9.27083 7.18611C9.20139 7.45093 9.07407 7.67963 8.88889 7.87222L5.52083 11.4111C5.9838 12.3019 6.53333 13.1623 7.16944 13.9923C7.80555 14.8224 8.50602 15.6231 9.27083 16.3944C9.98843 17.1407 10.7407 17.8331 11.5278 18.4716C12.3148 19.11 13.1481 19.6936 14.0278 20.2222L17.2917 16.8278C17.5 16.6111 17.7722 16.4489 18.1083 16.341C18.4444 16.2331 18.7741 16.2028 19.0972 16.25L23.8889 17.2611C24.213 17.3574 24.4792 17.5322 24.6875 17.7854C24.8958 18.0387 25 18.3213 25 18.6333V24.4833C25 24.9167 24.8611 25.2778 24.5833 25.5667C24.3056 25.8556 23.9583 26 23.5417 26Z" fill="url(#paint0_linear_33_696)"/>
<defs>
<linearGradient id="paint0_linear_33_696" x1="12.5" y1="0" x2="12.5" y2="26" gradientUnits="userSpaceOnUse">
<stop stop-color="#CDC53E"/>
<stop offset="1" stop-color="#00E5FA"/>
</linearGradient>
</defs>
</svg>
