<svg width="26" height="27" viewBox="0 0 26 27" fill="none" xmlns="http://www.w3.org/2000/svg">
<path d="M7.7148 6.64447V7.39447C7.9696 7.39447 8.20698 7.2651 8.34508 7.05097L7.7148 6.64447ZM9.18107 4.371L8.55078 3.9645V3.9645L9.18107 4.371ZM16.6752 4.371L17.3055 3.9645L16.6752 4.371ZM18.1415 6.64447L17.5112 7.05097C17.6493 7.2651 17.8867 7.39447 18.1415 7.39447V6.64447ZM15.3061 14.7278C15.3061 16.1229 14.2182 17.2111 12.9281 17.2111V18.7111C15.0931 18.7111 16.8061 16.9041 16.8061 14.7278H15.3061ZM12.9281 17.2111C11.638 17.2111 10.5501 16.1229 10.5501 14.7278H9.05013C9.05013 16.9041 10.7632 18.7111 12.9281 18.7111V17.2111ZM10.5501 14.7278C10.5501 13.3327 11.638 12.2445 12.9281 12.2445V10.7445C10.7632 10.7445 9.05013 12.5515 9.05013 14.7278H10.5501ZM12.9281 12.2445C14.2182 12.2445 15.3061 13.3327 15.3061 14.7278H16.8061C16.8061 12.5515 15.0931 10.7445 12.9281 10.7445V12.2445ZM8.34508 7.05097L9.81135 4.7775L8.55078 3.9645L7.08451 6.23797L8.34508 7.05097ZM10.9162 4.16113H14.9401V2.66113H10.9162V4.16113ZM16.0449 4.7775L17.5112 7.05097L18.7717 6.23797L17.3055 3.9645L16.0449 4.7775ZM14.9401 4.16113C15.3754 4.16113 15.7923 4.38589 16.0449 4.7775L17.3055 3.9645C16.7845 3.15677 15.8993 2.66113 14.9401 2.66113V4.16113ZM9.81135 4.7775C10.0639 4.38589 10.4809 4.16113 10.9162 4.16113V2.66113C9.95698 2.66113 9.07173 3.15677 8.55078 3.9645L9.81135 4.7775ZM22.6048 10.9556V18.5H24.1048V10.9556H22.6048ZM19.1841 22.0611H6.67213V23.5611H19.1841V22.0611ZM3.25146 18.5V10.9556H1.75146V18.5H3.25146ZM6.67213 22.0611C4.80617 22.0611 3.25146 20.4904 3.25146 18.5H1.75146C1.75146 21.2716 3.9313 23.5611 6.67213 23.5611V22.0611ZM22.6048 18.5C22.6048 20.4904 21.0501 22.0611 19.1841 22.0611V23.5611C21.925 23.5611 24.1048 21.2716 24.1048 18.5H22.6048ZM19.1841 7.39447C21.0501 7.39447 22.6048 8.96522 22.6048 10.9556H24.1048C24.1048 8.18401 21.925 5.89447 19.1841 5.89447V7.39447ZM6.67213 5.89447C3.9313 5.89447 1.75146 8.18401 1.75146 10.9556H3.25146C3.25146 8.96522 4.80617 7.39447 6.67213 7.39447V5.89447ZM6.67213 7.39447H7.7148V5.89447H6.67213V7.39447ZM19.1841 5.89447H18.1415V7.39447H19.1841V5.89447Z" fill="white"/>
<ellipse cx="12.9279" cy="6.64449" rx="1.04267" ry="1.07778" fill="white"/>
</svg>
