<svg width="21" height="18" viewBox="0 0 21 18" fill="none" xmlns="http://www.w3.org/2000/svg">
<path d="M16.5896 14.2155V13.4655H16.126L15.9187 13.8801L16.5896 14.2155ZM15.4627 16.4693L15.0215 17.0759L15.7375 17.5966L16.1335 16.8048L15.4627 16.4693ZM12.3637 14.2155L12.8048 13.609L12.6076 13.4655H12.3637V14.2155ZM4.65796 0.506058C2.58689 0.506058 0.907959 2.18499 0.907959 4.25606H2.40796C2.40796 3.01342 3.41532 2.00606 4.65796 2.00606V0.506058ZM16.6885 0.506058H4.65796V2.00606H16.6885V0.506058ZM20.4385 4.25606C20.4385 2.18499 18.7596 0.506058 16.6885 0.506058V2.00606C17.9312 2.00606 18.9385 3.01342 18.9385 4.25606H20.4385ZM20.4385 11.2155V4.25606H18.9385V11.2155H20.4385ZM16.6885 14.9655C18.7596 14.9655 20.4385 13.2866 20.4385 11.2155H18.9385C18.9385 12.4582 17.9312 13.4655 16.6885 13.4655V14.9655ZM16.5896 14.9655H16.6885V13.4655H16.5896V14.9655ZM16.1335 16.8048L17.2604 14.5509L15.9187 13.8801L14.7918 16.1339L16.1335 16.8048ZM11.9225 14.8221L15.0215 17.0759L15.9038 15.8628L12.8048 13.609L11.9225 14.8221ZM4.65796 14.9655H12.3637V13.4655H4.65796V14.9655ZM0.907959 11.2155C0.907959 13.2866 2.58689 14.9655 4.65796 14.9655V13.4655C3.41532 13.4655 2.40796 12.4582 2.40796 11.2155H0.907959ZM0.907959 4.25606V11.2155H2.40796V4.25606H0.907959ZM6.26584 4.81358C5.7964 4.81358 5.41584 5.19413 5.41584 5.66358H6.91584C6.91584 6.02256 6.62482 6.31358 6.26584 6.31358V4.81358ZM14.5177 4.81358H6.26584V6.31358H14.5177V4.81358ZM15.3677 5.66358C15.3677 5.19413 14.9871 4.81358 14.5177 4.81358V6.31358C14.1587 6.31358 13.8677 6.02257 13.8677 5.66358H15.3677ZM14.5177 6.51358C14.9871 6.51358 15.3677 6.13302 15.3677 5.66358H13.8677C13.8677 5.30458 14.1587 5.01358 14.5177 5.01358V6.51358ZM6.26584 6.51358H14.5177V5.01358H6.26584V6.51358ZM5.41584 5.66358C5.41584 6.13302 5.7964 6.51358 6.26584 6.51358V5.01358C6.62482 5.01358 6.91584 5.30459 6.91584 5.66358H5.41584ZM6.26584 8.75781C5.7964 8.75781 5.41584 9.13837 5.41584 9.60781H6.91584C6.91584 9.9668 6.62482 10.2578 6.26584 10.2578V8.75781ZM12.2638 8.75781H6.26584V10.2578H12.2638V8.75781ZM13.1138 9.60781C13.1138 9.13837 12.7333 8.75781 12.2638 8.75781V10.2578C11.9049 10.2578 11.6138 9.9668 11.6138 9.60781H13.1138ZM12.2638 10.4578C12.7333 10.4578 13.1138 10.0773 13.1138 9.60781H11.6138C11.6138 9.24883 11.9049 8.95781 12.2638 8.95781V10.4578ZM6.26584 10.4578H12.2638V8.95781H6.26584V10.4578ZM5.41584 9.60781C5.41584 10.0773 5.79639 10.4578 6.26584 10.4578V8.95781C6.62483 8.95781 6.91584 9.24883 6.91584 9.60781H5.41584Z" fill="white"/>
</svg>
