<svg width="24" height="20" viewBox="0 0 24 20" fill="none" xmlns="http://www.w3.org/2000/svg">
<path d="M22.2375 19.0047H21.2375H8.2684C4.70147 19.0047 1.71021 16.2521 1.71021 12.7606V7.50105L22.2375 19.0047ZM22.2375 19.0047V18.0047M22.2375 19.0047V18.0047M22.2375 18.0047V7.50069C22.2375 4.00924 19.2463 1.25654 15.6793 1.25654H8.26919M22.2375 18.0047L1.71021 7.50069C1.70972 6.67196 1.88236 5.85276 2.21658 5.09051C2.55083 4.32821 3.03934 3.63952 3.65115 3.06227C4.26285 2.48514 4.98601 2.03045 5.77787 1.72162C6.56942 1.41292 7.41585 1.25529 8.26919 1.25654M8.26919 1.25654C8.26945 1.25654 8.26972 1.25654 8.26998 1.25654L8.2684 2.25654V1.25654H8.26919Z" stroke="white" stroke-width="2"/>
</svg>
