<svg width="17" height="17" viewBox="0 0 17 17" fill="none" xmlns="http://www.w3.org/2000/svg">
<path fill-rule="evenodd" clip-rule="evenodd" d="M16.7749 0.626435C16.862 1.01905 16.6188 1.40895 16.2318 1.49729L12.4824 2.35304V7.34445H16.0741C16.4708 7.34445 16.7924 7.67069 16.7924 8.07312C16.7924 10.2278 16.1505 12.2391 14.8066 13.7193C13.4538 15.2093 11.4551 16.0885 8.89083 16.0885C6.32653 16.0885 4.32784 15.2093 2.97502 13.7193C1.63112 12.2391 0.989261 10.2278 0.989261 8.07312C0.989261 7.67069 1.31087 7.34445 1.70759 7.34445H2.42591V4.64836L1.86527 4.77632C1.47822 4.86466 1.09387 4.61799 1.00678 4.22537C0.919696 3.83275 1.16286 3.44286 1.5499 3.35452L2.42591 3.15458V2.97241C2.42591 2.56997 2.74751 2.24374 3.14423 2.24374C3.49284 2.24374 3.78345 2.49565 3.84881 2.82981L5.29921 2.49877V2.24374C5.29921 1.8413 5.62081 1.51506 6.01753 1.51506C6.39027 1.51506 6.69671 1.80306 6.73238 2.17166L8.1725 1.84296V1.51506C8.1725 1.11263 8.49411 0.786388 8.89083 0.786388C9.28755 0.786388 9.60915 1.11263 9.60915 1.51506L11.0458 1.18716V0.786388C11.0458 0.383952 11.3674 0.057714 11.7641 0.057714C12.1608 0.057714 12.4824 0.383952 12.4824 0.786388V0.859255L15.9164 0.0754866C16.3034 -0.0128529 16.6878 0.233815 16.7749 0.626435ZM11.0458 2.68094L9.60915 3.00884V7.34445H11.0458V2.68094ZM2.4549 8.8018C2.58143 10.3661 3.12017 11.7279 4.03178 12.732C5.07338 13.8792 6.66631 14.6312 8.89083 14.6312C11.1153 14.6312 12.7083 13.8792 13.7499 12.732C14.6615 11.7279 15.2002 10.3661 15.3268 8.8018H2.4549ZM3.86256 7.34445H5.29921V3.99255L3.86256 4.32046V7.34445ZM6.73585 3.66465V7.34445H8.1725V3.33675L6.73585 3.66465Z" fill="#635B6A"/>
</svg>
