<svg width="11" height="17" viewBox="0 0 11 17" fill="none" xmlns="http://www.w3.org/2000/svg">
<path fill-rule="evenodd" clip-rule="evenodd" d="M2.4705 0.656774C2.60567 0.468236 2.82161 0.356689 3.05143 0.356689H8.79802C9.02784 0.356689 9.24378 0.468238 9.37896 0.656779C8.76231 1.11171 8.79229 1.08959 9.37896 0.656779L9.38069 0.6592L9.38336 0.662968L9.39147 0.674503C9.39808 0.683955 9.40705 0.696916 9.41816 0.713263C9.44039 0.745948 9.47123 0.792229 9.50894 0.851115C9.58429 0.968788 9.68741 1.1374 9.80409 1.34899C10.0366 1.77071 10.3274 2.37106 10.5581 3.08534C10.7815 3.77674 10.953 4.58885 10.953 5.45741C10.953 6.17191 10.8029 6.85756 10.5332 7.48058C9.85156 9.05601 8.39676 10.2466 6.64305 10.5055V14.9302H9.51635C9.91306 14.9302 10.2347 15.2564 10.2347 15.6588C10.2347 16.0613 9.91306 16.3875 9.51635 16.3875H2.3331C1.93638 16.3875 1.61478 16.0613 1.61478 15.6588C1.61478 15.2564 1.93638 14.9302 2.3331 14.9302H5.2064V10.5065C3.52899 10.263 2.11959 9.17981 1.40386 7.69262C1.07866 7.01681 0.896454 6.25763 0.896454 5.45741C0.896454 4.48641 1.11087 3.58526 1.37321 2.84323C1.60193 2.19633 1.87203 1.65648 2.08504 1.27771C2.19187 1.08775 2.28524 0.93673 2.35324 0.831303C2.38727 0.77855 2.41502 0.737091 2.43504 0.707755C2.44505 0.693083 2.45313 0.681431 2.4591 0.672903L2.46644 0.662461L2.46889 0.659019L2.4698 0.657746L2.4705 0.656774ZM3.44072 1.81404C3.40768 1.8692 3.37146 1.9313 3.33291 1.99986C3.15061 2.32401 2.91967 2.78609 2.72552 3.33521M3.44072 1.81404H8.40872C8.45124 1.88504 8.49903 1.96753 8.55028 2.06046C8.75009 2.4228 8.99805 2.93587 9.19289 3.5391C9.33417 3.9765 9.44499 4.45356 9.49193 4.94945C9.26453 5.01881 8.97067 5.09474 8.64109 5.14753C7.85441 5.27353 6.97959 5.24967 6.2943 4.83257C5.18378 4.15666 3.90363 4.18052 2.98429 4.32777C2.78637 4.35947 2.5998 4.39774 2.42852 4.43842C2.49932 4.04953 2.60431 3.67806 2.72552 3.33521M2.69487 7.05327C2.53257 6.71597 2.42002 6.34925 2.36724 5.96241L2.69487 7.05327ZM2.36724 5.96241C2.59327 5.89385 2.88345 5.81932 3.20835 5.76728C3.99503 5.64128 4.86986 5.66514 5.55515 6.08224C6.66567 6.75815 7.94582 6.73429 8.86516 6.58704C9.04192 6.55873 9.20963 6.52518 9.36549 6.48935C9.32415 6.62779 9.27474 6.76313 9.21777 6.89478C8.6599 8.18407 7.38926 9.10078 5.92472 9.10078C4.50661 9.10078 3.27906 8.26709 2.69487 7.05327" fill="#635B6A"/>
</svg>
