<svg width="26" height="27" viewBox="0 0 26 27" fill="none" xmlns="http://www.w3.org/2000/svg">
<rect x="0.86792" y="0.677795" width="24.024" height="24.8667" stroke="white"/>
<path d="M7.66652 19.5778L7.66652 10.9556C7.66652 8.57464 9.53379 6.64448 11.8372 6.64448L18.0932 6.64449M7.66652 19.5778C7.66652 21.9588 9.53379 23.8889 11.8372 23.8889H14.2803C15.3864 23.8889 16.4473 23.4347 17.2294 22.6262L21.0423 18.685C21.8244 17.8765 22.2638 16.7799 22.2638 15.6365V10.9556C22.2638 8.57464 20.3966 6.64449 18.0932 6.64449M7.66652 19.5778C5.36312 19.5778 3.49585 17.6477 3.49585 15.2667L3.49585 6.64448C3.49585 4.26352 5.36312 2.33337 7.66652 2.33337L13.9225 2.33337C16.2259 2.33337 18.0932 4.26352 18.0932 6.64449M16.0079 23.8889V21.7334C16.0079 19.3524 17.8751 17.4223 20.1785 17.4223H22.2638" stroke="white" stroke-width="1.5" stroke-linejoin="round"/>
</svg>
