<svg width="17" height="16" viewBox="0 0 17 16" fill="none" xmlns="http://www.w3.org/2000/svg">
<path fill-rule="evenodd" clip-rule="evenodd" d="M10.6852 2.82618C10.6852 1.41765 11.8108 0.275818 13.1993 0.275818C14.5878 0.275818 15.7135 1.41765 15.7135 2.82618C15.7135 4.23469 14.5879 5.37653 13.1993 5.37653C11.8108 5.37653 10.6852 4.23469 10.6852 2.82618ZM13.1993 1.73317C12.6043 1.73317 12.1219 2.22253 12.1219 2.82618C12.1219 3.42982 12.6043 3.91919 13.1993 3.91919C13.7944 3.91919 14.2768 3.42982 14.2768 2.82618C14.2768 2.22253 13.7944 1.73317 13.1993 1.73317ZM7.21883 3.59423C7.39726 3.53156 7.59285 3.54268 7.76327 3.62518L11.7129 5.53744C11.9401 5.64741 12.0939 5.86994 12.1184 6.12402C12.143 6.37811 12.0346 6.62668 11.8328 6.77927L8.70476 9.14468L11.7985 11.2106C11.9641 11.3212 12.0772 11.4962 12.1112 11.6943C12.1452 11.8924 12.097 12.0959 11.978 12.2567L9.46687 15.6503C9.22871 15.9722 8.77844 16.0373 8.46115 15.7957C8.14387 15.5541 8.07973 15.0973 8.31789 14.7755L10.3704 12.0017L7.05889 9.79038C6.86324 9.65973 6.74268 9.44052 6.73584 9.20302C6.729 8.96551 6.83675 8.73954 7.02455 8.59753L10.0198 6.33254L7.41041 5.06917L4.81448 5.98097C4.4396 6.11265 4.03047 5.91111 3.90066 5.53083C3.77086 5.15054 3.96954 4.73552 4.34442 4.60384L7.21883 3.59423ZM16.5961 5.04728C16.8677 5.34056 16.8536 5.80171 16.5644 6.07728L14.4101 8.13068C14.1841 8.34606 13.8474 8.39005 13.575 8.23978L12.6119 7.70843C12.2633 7.51617 12.1345 7.07371 12.324 6.72017C12.5135 6.36663 12.9497 6.2359 13.2982 6.42816L13.805 6.70772L15.5807 5.0152C15.8698 4.73963 16.3244 4.75399 16.5961 5.04728ZM6.75537 10.0956C7.07135 10.3389 7.13304 10.796 6.89316 11.1166L5.82656 12.5418C5.76695 12.6214 5.69181 12.6878 5.60583 12.7367L2.05897 14.7548C1.71296 14.9517 1.27514 14.8268 1.08106 14.4758C0.88698 14.1248 1.01014 13.6807 1.35615 13.4838L4.77266 11.5398L5.74889 10.2354C5.98878 9.91483 6.43939 9.85225 6.75537 10.0956Z" fill="#635B6A"/>
</svg>
