<svg width="26" height="26" viewBox="0 0 26 26" fill="none" xmlns="http://www.w3.org/2000/svg">
<path d="M13.2799 14.8889C12.1392 14.8889 11.2145 13.9437 11.2145 12.7778C11.2145 11.6118 12.1392 10.6667 13.2799 10.6667C14.4206 10.6667 15.3454 11.6118 15.3454 12.7778C15.3454 13.9437 14.4206 14.8889 13.2799 14.8889Z" fill="white"/>
<path d="M21.5417 14.8889C20.401 14.8889 19.4763 13.9437 19.4763 12.7778C19.4763 11.6118 20.401 10.6667 21.5417 10.6667C22.6824 10.6667 23.6072 11.6118 23.6072 12.7778C23.6072 13.9437 22.6824 14.8889 21.5417 14.8889Z" fill="white"/>
<path d="M5.01809 14.8889C3.87737 14.8889 2.95264 13.9437 2.95264 12.7778C2.95264 11.6118 3.87737 10.6667 5.01809 10.6667C6.15881 10.6667 7.08355 11.6118 7.08355 12.7778C7.08355 13.9437 6.15881 14.8889 5.01809 14.8889Z" fill="white"/>
</svg>
