<svg width="15" height="16" viewBox="0 0 15 16" fill="none" xmlns="http://www.w3.org/2000/svg">
<path fill-rule="evenodd" clip-rule="evenodd" d="M13.8155 0.769067C13.9883 0.907242 14.0891 1.11811 14.0891 1.34129V4.28667C14.0893 4.29701 14.0893 4.30733 14.0891 4.31762V12.4171C14.0891 13.5439 13.1886 14.4574 12.0778 14.4574H10.677C9.58606 14.4574 8.70165 13.5603 8.70165 12.4536C8.70165 11.3469 9.58606 10.4497 10.677 10.4497H12.6524V5.22287L5.11003 7.03434V13.8745C5.11003 15.0013 4.20952 15.9148 3.09872 15.9148H2.05715C0.966168 15.9148 0.0817566 15.0176 0.0817566 13.9109C0.0817566 12.8042 0.966168 11.9071 2.05715 11.9071H3.67338V6.47288C3.67316 6.46255 3.67316 6.45224 3.67338 6.44197V3.52731C3.67338 3.19038 3.90109 2.89739 4.22406 2.81876L13.2031 0.632737C13.4171 0.580653 13.6427 0.630893 13.8155 0.769067ZM5.11003 5.5367L12.6524 3.72523V2.26554L5.11003 4.1018V5.5367ZM3.67338 13.3644H2.05715C1.75961 13.3644 1.51841 13.6091 1.51841 13.9109C1.51841 14.2127 1.75961 14.4574 2.05715 14.4574H3.09872C3.41609 14.4574 3.67338 14.1964 3.67338 13.8745V13.3644ZM12.6524 11.9071H10.677C10.3795 11.9071 10.1383 12.1517 10.1383 12.4536C10.1383 12.7554 10.3795 13.0001 10.677 13.0001H12.0778C12.3951 13.0001 12.6524 12.7391 12.6524 12.4171V11.9071Z" fill="#635B6A"/>
</svg>
