<svg width="17" height="9" viewBox="0 0 17 9" fill="none" xmlns="http://www.w3.org/2000/svg">
<path d="M8.63361 0.0735521C8.41262 0.176838 8.27484 0.373238 8.27484 0.586852V3.91313H0.6935C0.310688 3.91313 0 4.17604 0 4.49998C0 4.82392 0.310688 5.08683 0.6935 5.08683H8.27484V8.41311C8.27484 8.6275 8.41262 8.8239 8.63361 8.92641C8.85461 9.03047 9.12461 9.02343 9.33821 8.90997L16.6764 4.99685C16.8779 4.88887 17 4.70186 17 4.49998C17 4.2981 16.8779 4.11109 16.6764 4.00311L9.33821 0.0899839C9.2254 0.0305163 9.09687 0 8.96834 0C8.85368 0 8.7381 0.025039 8.63361 0.0735521Z" fill="#00E5FA"/>
</svg>
