<svg width="14" height="17" viewBox="0 0 14 17" fill="none" xmlns="http://www.w3.org/2000/svg">
<path fill-rule="evenodd" clip-rule="evenodd" d="M7.45402 1.70439C6.46222 1.70439 5.65821 2.51998 5.65821 3.52607V3.89041H9.24983V3.52607C9.24983 2.51998 8.44582 1.70439 7.45402 1.70439ZM10.6865 3.89041V3.52607C10.6865 1.71511 9.23926 0.24704 7.45402 0.24704C5.66878 0.24704 4.22156 1.71511 4.22156 3.52607V3.89041H2.42575C1.63231 3.89041 0.989105 4.54289 0.989105 5.34776V14.8205C0.989105 15.6254 1.63231 16.2779 2.42575 16.2779H12.4823C13.2757 16.2779 13.9189 15.6254 13.9189 14.8205V5.34776C13.9189 4.54289 13.2757 3.89041 12.4823 3.89041H10.6865ZM9.24983 5.34776V6.07643C9.24983 6.47887 9.57144 6.8051 9.96816 6.8051C10.3649 6.8051 10.6865 6.47887 10.6865 6.07643V5.34776H12.4823V14.8205H2.42575V5.34776H4.22156V6.07643C4.22156 6.47887 4.54317 6.8051 4.93989 6.8051C5.33661 6.8051 5.65821 6.47887 5.65821 6.07643V5.34776H9.24983Z" fill="#635B6A"/>
</svg>
