<svg width="13" height="17" viewBox="0 0 13 17" fill="none" xmlns="http://www.w3.org/2000/svg">
<path fill-rule="evenodd" clip-rule="evenodd" d="M3.55723 4.08085C3.55723 2.26989 5.00445 0.801819 6.78969 0.801819C8.57493 0.801819 10.0221 2.26989 10.0221 4.08085V8.81723C10.0221 10.6282 8.57493 12.0963 6.78969 12.0963C5.00445 12.0963 3.55723 10.6282 3.55723 8.81723V4.08085ZM6.78969 2.25917C5.79789 2.25917 4.99388 3.07476 4.99388 4.08085V8.81723C4.99388 9.82332 5.79788 10.6389 6.78969 10.6389C7.78149 10.6389 8.5855 9.82332 8.5855 8.81723V4.08085C8.5855 3.07476 7.78149 2.25917 6.78969 2.25917ZM1.40225 7.72422C1.79897 7.72422 2.12058 8.05046 2.12058 8.45289C2.12058 11.0687 4.211 13.1893 6.78969 13.1893C9.36837 13.1893 11.4588 11.0687 11.4588 8.45289C11.4588 8.05046 11.7804 7.72422 12.1771 7.72422C12.5738 7.72422 12.8954 8.05046 12.8954 8.45289C12.8954 11.6271 10.5416 14.2436 7.50801 14.6042V16.104C7.50801 16.5064 7.18641 16.8326 6.78969 16.8326C6.39297 16.8326 6.07136 16.5064 6.07136 16.104V14.6042C3.03775 14.2436 0.683929 11.6271 0.683929 8.45289C0.683929 8.05046 1.00553 7.72422 1.40225 7.72422Z" fill="#635B6A"/>
</svg>
