<svg width="17" height="17" viewBox="0 0 17 17" fill="none" xmlns="http://www.w3.org/2000/svg">
<path fill-rule="evenodd" clip-rule="evenodd" d="M0.869202 8.92697C0.869202 4.50018 4.40685 0.91156 8.77077 0.91156C13.1347 0.91156 16.6723 4.50018 16.6723 8.92697C16.6723 9.12023 16.5967 9.30557 16.4619 9.44222L9.2787 16.729C8.99818 17.0135 8.54336 17.0135 8.26284 16.729L1.07959 9.44222C0.944882 9.30557 0.869202 9.12023 0.869202 8.92697ZM2.49621 7.34085C2.51907 7.32716 2.54179 7.31376 2.56439 7.30066C2.98496 7.05687 3.43344 6.87344 3.8731 6.87344C4.31276 6.87344 4.76125 7.05687 5.18182 7.30066C5.47744 7.47202 5.79505 7.69456 6.13341 7.96318C6.94995 7.27304 7.83059 6.87344 8.77077 6.87344C9.71095 6.87344 10.5916 7.27304 11.4081 7.96318C11.7465 7.69455 12.0641 7.47202 12.3597 7.30066C12.7803 7.05687 13.2288 6.87344 13.6684 6.87344C14.1081 6.87344 14.5566 7.05687 14.9771 7.30066C14.9997 7.31376 15.0225 7.32716 15.0453 7.34086C14.3461 4.48526 11.8021 2.36891 8.77077 2.36891C5.73945 2.36891 3.19541 4.48526 2.49621 7.34085ZM14.8812 8.98478C14.6508 8.8096 14.4454 8.67092 14.2644 8.56599C13.9231 8.36816 13.7367 8.33078 13.6684 8.33078C13.6002 8.33078 13.4138 8.36816 13.0725 8.56599C12.778 8.73671 12.419 8.99676 11.9927 9.35801L10.5524 13.3759L14.8812 8.98478ZM8.77077 14.0815L10.5453 9.13126C9.88717 8.55777 9.29732 8.33078 8.77077 8.33078C8.24421 8.33078 7.65437 8.55777 6.99625 9.13126L8.77077 14.0815ZM5.54885 9.35801C5.12252 8.99676 4.76355 8.73671 4.46904 8.56599C4.12775 8.36816 3.94135 8.33078 3.8731 8.33078C3.80486 8.33078 3.61846 8.36816 3.27717 8.56599C3.09615 8.67092 2.89078 8.8096 2.66038 8.98478L6.98916 13.3759L5.54885 9.35801Z" fill="#635B6A"/>
</svg>
