<svg width="17" height="13" viewBox="0 0 17 13" fill="none" xmlns="http://www.w3.org/2000/svg">
<path d="M5.17926 8.84278C6.13248 8.84278 6.86237 9.0206 7.97786 9.50055L8.38856 9.68269L8.83724 9.89113L9.49708 10.204L9.87703 10.3776C9.93735 10.4045 9.99623 10.4305 10.0538 10.4554L10.3841 10.5941C11.1744 10.9132 11.7144 11.0288 12.3625 11.0288C13.0436 11.0288 13.8009 10.8444 14.565 10.5344C14.8374 10.4239 15.0907 10.3053 15.3169 10.1872L15.5099 10.083L15.5845 10.0396C15.9247 9.83258 16.366 9.94448 16.5701 10.2896C16.7742 10.6347 16.6639 11.0822 16.3237 11.2893L16.129 11.4019L15.8871 11.5299C15.6668 11.6417 15.401 11.7648 15.0985 11.8875C14.179 12.2606 13.2527 12.4862 12.3625 12.4862C11.4093 12.4862 10.6794 12.3083 9.5639 11.8284L9.15319 11.6462L8.70452 11.4378L8.04468 11.1249L7.66473 10.9514C7.60441 10.9244 7.54552 10.8985 7.48796 10.8735L7.15763 10.7348C6.36732 10.4157 5.82739 10.3001 5.17926 10.3001C4.49813 10.3001 3.74084 10.4845 2.9768 10.7945C2.70431 10.9051 2.45109 11.0236 2.22481 11.1417L2.03184 11.2459L1.95721 11.2893C1.61703 11.4963 1.17579 11.3845 0.971677 11.0394C0.767566 10.6943 0.877876 10.2467 1.21806 10.0396L1.41279 9.927L1.65469 9.79902C1.87497 9.68722 2.1408 9.56412 2.44324 9.4414C3.36277 9.06829 4.28905 8.84278 5.17926 8.84278Z" fill="#635B6A"/>
<path d="M5.17926 4.47074C6.13248 4.47074 6.86237 4.64856 7.97786 5.1285L8.38856 5.31064L8.83724 5.51909L9.49708 5.83195L9.87703 6.00553C9.93735 6.03246 9.99623 6.05841 10.0538 6.0834L10.3841 6.22208C11.1744 6.54114 11.7144 6.65676 12.3625 6.65676C13.0436 6.65676 13.8009 6.47239 14.565 6.16237C14.8374 6.05181 15.0907 5.93325 15.3169 5.8152L15.5099 5.71097L15.5845 5.66759C15.9247 5.46054 16.366 5.57244 16.5701 5.91752C16.7742 6.26261 16.6639 6.7102 16.3237 6.91725L16.129 7.02989L15.8871 7.15787C15.6668 7.26967 15.401 7.39277 15.0985 7.51548C14.179 7.8886 13.2527 8.11411 12.3625 8.11411C11.4093 8.11411 10.6794 7.93629 9.5639 7.45634L9.15319 7.2742L8.70452 7.06576L8.04468 6.75289L7.66473 6.57932C7.60441 6.55239 7.54552 6.52644 7.48796 6.50145L7.15763 6.36276C6.36732 6.0437 5.82739 5.92809 5.17926 5.92809C4.49813 5.92809 3.74084 6.11245 2.9768 6.42247C2.70431 6.53304 2.45109 6.65159 2.22481 6.76964L2.03184 6.87388L1.95721 6.91725C1.61703 7.12431 1.17579 7.01241 0.971677 6.66732C0.767566 6.32224 0.877876 5.87464 1.21806 5.66759L1.41279 5.55495L1.65469 5.42697C1.87497 5.31518 2.1408 5.19208 2.44324 5.06936C3.36277 4.69625 4.28905 4.47074 5.17926 4.47074Z" fill="#635B6A"/>
<path d="M5.17926 0.0986938C6.13248 0.0986938 6.86237 0.276513 7.97786 0.756458L8.38856 0.938598L8.83724 1.14704L9.49708 1.45991L9.87703 1.63349C9.93735 1.66042 9.99623 1.68636 10.0538 1.71135L10.3841 1.85004C11.1744 2.1691 11.7144 2.28472 12.3625 2.28472C13.0436 2.28472 13.8009 2.10035 14.565 1.79033C14.8374 1.67976 15.0907 1.56121 15.3169 1.44316L15.5099 1.33892L15.5845 1.29555C15.9247 1.08849 16.366 1.20039 16.5701 1.54548C16.7742 1.89056 16.6639 2.33816 16.3237 2.54521L16.129 2.65785L15.8871 2.78583C15.6668 2.89762 15.401 3.02072 15.0985 3.14344C14.179 3.51655 13.2527 3.74206 12.3625 3.74206C11.4093 3.74206 10.6794 3.56424 9.5639 3.0843L9.15319 2.90216L8.70452 2.69371L8.04468 2.38085L7.66473 2.20727C7.60441 2.18034 7.54552 2.15439 7.48796 2.1294L7.15763 1.99072C6.36732 1.67166 5.82739 1.55604 5.17926 1.55604C4.49813 1.55604 3.74084 1.74041 2.9768 2.05043C2.70431 2.16099 2.45109 2.27955 2.22481 2.3976L2.03184 2.50184L1.95721 2.54521C1.61703 2.75226 1.17579 2.64036 0.971677 2.29528C0.767566 1.95019 0.877876 1.5026 1.21806 1.29555L1.41279 1.18291L1.65469 1.05493C1.87497 0.943136 2.1408 0.820034 2.44324 0.697316C3.36277 0.324205 4.28905 0.0986938 5.17926 0.0986938Z" fill="#635B6A"/>
</svg>
