<svg width="22" height="22" viewBox="0 0 22 22" fill="none" xmlns="http://www.w3.org/2000/svg">
<path d="M4.37817 2.92207C6.31126 1.24703 8.78432 0.326581 11.3422 0.330149C17.2259 0.330149 21.9954 5.09959 21.9954 10.9833C21.9954 13.2589 21.2816 15.3682 20.0672 17.0983L16.6688 10.9833H19.8647C19.8649 9.31252 19.3739 7.67852 18.4528 6.28449C17.5318 4.89047 16.2213 3.79793 14.6843 3.14273C13.1473 2.48752 11.4516 2.29854 9.80806 2.5993C8.16453 2.90006 6.64566 3.67728 5.4403 4.83432L4.37817 2.92207ZM18.3062 19.0446C16.3731 20.7197 13.9 21.6401 11.3422 21.6365C5.45841 21.6365 0.688965 16.8671 0.688965 10.9833C0.688965 8.70782 1.40273 6.59849 2.6172 4.86841L6.01557 10.9833H2.81961C2.81947 12.6542 3.31046 14.2882 4.23151 15.6822C5.15257 17.0762 6.46308 18.1688 8.00007 18.824C9.53706 19.4792 11.2327 19.6681 12.8763 19.3674C14.5198 19.0666 16.0387 18.2894 17.244 17.1324L18.3062 19.0446Z" fill="white"/>
</svg>
