<svg width="17" height="16" viewBox="0 0 17 16" fill="none" xmlns="http://www.w3.org/2000/svg">
<path fill-rule="evenodd" clip-rule="evenodd" d="M13.4399 1.6248C12.8448 1.6248 12.3624 2.11416 12.3624 2.71781C12.3624 3.32146 12.8448 3.81082 13.4399 3.81082C14.035 3.81082 14.5174 3.32146 14.5174 2.71781C14.5174 2.11416 14.035 1.6248 13.4399 1.6248ZM10.9257 2.71781C10.9257 1.30928 12.0514 0.16745 13.4399 0.16745C14.8284 0.16745 15.954 1.30928 15.954 2.71781C15.954 4.12633 14.8284 5.26817 13.4399 5.26817C12.0514 5.26817 10.9257 4.12633 10.9257 2.71781ZM6.62213 2.3535C6.9098 2.35607 7.16822 2.5325 7.27887 2.80189L10.1326 9.74958L10.9626 7.22376C11.0513 6.9538 11.2868 6.76092 11.5657 6.72987C11.8445 6.69882 12.1157 6.83527 12.26 7.07929L16.57 14.366C16.7031 14.5911 16.7066 14.8715 16.5791 15.0999C16.4516 15.3284 16.2128 15.4696 15.954 15.4696H1.58753C1.34511 15.4696 1.11905 15.3456 0.986359 15.1398C0.853672 14.934 0.832265 14.6742 0.92943 14.4489L5.9577 2.79008C6.07301 2.52272 6.33445 2.35093 6.62213 2.3535ZM2.68586 14.0123H14.6853L11.8316 9.18761L10.8889 12.0567C10.7942 12.3449 10.533 12.5433 10.2336 12.5544C9.93429 12.5655 9.65957 12.387 9.54435 12.1065L6.59969 4.93747L2.68586 14.0123Z" fill="#F34686"/>
</svg>
