<svg width="17" height="16" viewBox="0 0 17 16" fill="none" xmlns="http://www.w3.org/2000/svg">
<path d="M5.70851 8.62802C6.10523 8.62802 6.42683 8.95426 6.42683 9.3567V10.0854H7.14515C7.54187 10.0854 7.86348 10.4116 7.86348 10.814C7.86348 11.2165 7.54187 11.5427 7.14515 11.5427H6.42683V12.2714C6.42683 12.6738 6.10523 13.0001 5.70851 13.0001C5.31179 13.0001 4.99018 12.6738 4.99018 12.2714V11.5427H4.27186C3.87514 11.5427 3.55353 11.2165 3.55353 10.814C3.55353 10.4116 3.87514 10.0854 4.27186 10.0854H4.99018V9.3567C4.99018 8.95426 5.31179 8.62802 5.70851 8.62802Z" fill="#635B6A"/>
<path fill-rule="evenodd" clip-rule="evenodd" d="M11.4551 8.62802C10.2649 8.62802 9.30013 9.60674 9.30013 10.814C9.30013 12.0214 10.2649 13.0001 11.4551 13.0001C12.6453 13.0001 13.6101 12.0214 13.6101 10.814C13.6101 9.60674 12.6453 8.62802 11.4551 8.62802ZM10.7368 10.814C10.7368 10.4116 11.0584 10.0854 11.4551 10.0854C11.8518 10.0854 12.1734 10.4116 12.1734 10.814C12.1734 11.2165 11.8518 11.5427 11.4551 11.5427C11.0584 11.5427 10.7368 11.2165 10.7368 10.814Z" fill="#635B6A"/>
<path fill-rule="evenodd" clip-rule="evenodd" d="M11.4551 0.61261C11.8518 0.61261 12.1734 0.938848 12.1734 1.34128V3.42321C12.1734 3.82564 11.8518 4.15188 11.4551 4.15188H9.30013V5.71333H11.4551C14.2321 5.71333 16.4834 7.997 16.4834 10.814C16.4834 13.6311 14.2321 15.9148 11.4551 15.9148H5.70851C2.93147 15.9148 0.680237 13.6311 0.680237 10.814C0.680237 7.997 2.93147 5.71333 5.70851 5.71333H7.86348V3.42321C7.86348 3.02077 8.18508 2.69454 8.5818 2.69454H10.7368V1.34128C10.7368 0.938848 11.0584 0.61261 11.4551 0.61261ZM5.70851 7.17068C3.72491 7.17068 2.11689 8.80187 2.11689 10.814C2.11689 12.8262 3.72491 14.4574 5.70851 14.4574H11.4551C13.4387 14.4574 15.0467 12.8262 15.0467 10.814C15.0467 8.80187 13.4387 7.17068 11.4551 7.17068H5.70851Z" fill="#635B6A"/>
</svg>
