<svg width="51" height="16" viewBox="0 0 51 16" fill="none" xmlns="http://www.w3.org/2000/svg">
<path d="M26.376 5.11501C26.3469 7.34388 28.4205 8.5876 29.9826 9.32714C31.5875 10.0858 32.1266 10.5724 32.1202 11.251C32.1083 12.2894 30.8401 12.7477 29.6533 12.7655C27.5828 12.7966 26.379 12.2224 25.4219 11.7881L24.676 15.1788C25.6363 15.6087 27.4143 15.9835 29.2581 16C33.5861 16 36.4176 13.9244 36.4329 10.7063C36.4499 6.62215 30.6181 6.39609 30.658 4.57057C30.6717 4.01703 31.2154 3.42633 32.4067 3.27614C32.9964 3.20027 34.6242 3.14221 36.4698 3.96787L37.1941 0.68728C36.2016 0.336188 34.926 0 33.3379 0C29.2642 0 26.3991 2.10384 26.376 5.11501ZM44.1544 0.282576C43.3641 0.282576 42.6982 0.730439 42.4009 1.41772L36.2186 15.759H40.5434L41.404 13.4483H46.6889L47.1881 15.759H51L47.6736 0.282576H44.1544ZM44.7595 4.46335L46.0076 10.2749H42.5894L44.7595 4.46335ZM21.1323 0.282769L17.7233 15.7588H21.8445L25.252 0.282382H21.1323V0.282769ZM15.0356 0.282382L10.7461 10.8165L9.01086 1.85978C8.80726 0.859921 8.00321 0.282576 7.11032 0.282576H0.0982148L0 0.731988C1.43955 1.03547 3.07514 1.52494 4.06605 2.04868C4.67248 2.36861 4.8454 2.64828 5.04462 3.40853L8.33113 15.759H12.6862L19.3633 0.282576H15.0356" fill="#578DF5"/>
</svg>
