<svg width="25" height="25" viewBox="0 0 25 25" fill="none" xmlns="http://www.w3.org/2000/svg">
<path d="M21.856 19.4355V17.763C21.856 16.932 21.3422 16.1847 20.5586 15.8761L18.4593 15.0493C17.4627 14.6568 16.3268 15.082 15.8467 16.0274L15.664 16.3871C15.664 16.3871 13.084 15.879 11.02 13.8468C8.95603 11.8145 8.44003 9.27419 8.44003 9.27419L8.80537 9.09432C9.76551 8.62164 10.1974 7.50321 9.7987 6.52186L8.95901 4.45491C8.64556 3.68335 7.88661 3.17741 7.04263 3.17741H5.34403C4.20411 3.17741 3.28003 4.08729 3.28003 5.20967C3.28003 14.1888 10.6727 21.4677 19.792 21.4677C20.9319 21.4677 21.856 20.5579 21.856 19.4355Z" stroke="white" stroke-width="1.5" stroke-linejoin="round"/>
</svg>
